<svg width="118" height="60" viewBox="0 0 118 60" fill="none" xmlns="http://www.w3.org/2000/svg">
<g clip-path="url(#clip0_77_120)">
<path d="M35.6564 18.8575L34.8313 19.2086L34.4609 19.3925L34.343 19.4259L33.9557 19.6098L21.9666 24.9261L22.0844 24.7923H21.9497L33.922 19.4761L34.2757 19.3089L34.3935 19.2587L34.7808 19.0915L35.6396 18.707L35.4543 18.8575H35.6564Z" stroke="#F7F7F7" stroke-width="0.8" stroke-miterlimit="10"/>
<path d="M26.9505 53.0955H19.9961V59.9999H26.9505V53.0955Z" fill="#F7F7F7"/>
<path d="M36.532 49.4678L36.0268 49.685L35.7911 49.7686L35.7069 49.8021L35.4711 49.8857L25.991 53.5302L26.0583 53.4633L25.9067 53.48L35.4543 49.8188L35.6732 49.7352L35.7574 49.7018L35.9931 49.6014L36.431 49.4343L36.3299 49.5179L36.532 49.4678Z" fill="#F7F7F7" stroke="#F7F7F7" stroke-width="0.8" stroke-miterlimit="10"/>
<path d="M37.1547 39.3368L37.0031 39.3535L37.0368 39.4036L28.348 37.3641L28.0617 37.3139L27.9607 37.2805L27.6744 37.2136L26.8325 37.013L27.0177 36.9963L26.9167 36.9294L27.7081 37.1133L27.9944 37.1802L28.0954 37.2136L28.3816 37.2805L37.1547 39.3368Z" fill="#F7F7F7" stroke="#F7F7F7" stroke-width="0.8" stroke-miterlimit="10"/>
<path d="M36.5487 18.8742C36.5487 18.9745 36.5319 19.0749 36.4982 19.1752H35.168V17.7541C35.2353 17.7374 35.3195 17.7207 35.3868 17.7207C36.0436 17.7374 36.5487 18.2557 36.5487 18.8742Z" fill="#F7F7F7"/>
<path d="M54.4988 0V19.1753H37.5423C37.5591 19.075 37.5591 18.9746 37.5591 18.8743C37.5591 17.6874 36.5824 16.7178 35.3869 16.7178C35.3196 16.7178 35.2353 16.7178 35.168 16.7345V0H54.4988Z" fill="#F7F7F7"/>
<path d="M37.1378 18.8744C37.1378 18.9746 37.1209 19.075 37.1041 19.1753C36.9526 19.9778 36.2622 20.5963 35.4034 20.5963C35.0498 20.5963 34.7298 20.496 34.4604 20.3121L34.5446 20.195C34.7972 20.3622 35.1002 20.4626 35.4034 20.4626C36.1779 20.4626 36.8178 19.9109 36.9694 19.192C36.9862 19.0917 37.003 18.9914 37.003 18.8911C37.003 18.0218 36.2958 17.3196 35.4202 17.3196C35.3529 17.3196 35.2686 17.3196 35.2013 17.3363C34.4267 17.4366 33.8374 18.1054 33.8374 18.9078C33.8374 19.3926 34.0731 19.844 34.4435 20.1449L34.3594 20.2619C33.9552 19.9443 33.7026 19.4595 33.7026 18.9078C33.7026 18.0385 34.3594 17.3196 35.2013 17.2026C35.2686 17.1858 35.3529 17.1858 35.4202 17.1858C36.3632 17.1524 37.1378 17.9382 37.1378 18.8744Z" fill="#F7F7F7" stroke="#F7F7F7" stroke-width="0.8" stroke-miterlimit="10"/>
<path d="M27.052 22.4688V34.9402C25.9406 34.9736 25.0482 35.8597 25.0482 36.9798V37.1136H12.3013V22.4688H27.052Z" fill="#F7F7F7"/>
<path d="M27.0518 35.96V37.0968H26.092C26.092 37.0466 26.0752 37.0132 26.0752 36.9631C26.092 36.4448 26.513 35.9934 27.0518 35.96Z" fill="#F7F7F7"/>
<path d="M28.3988 37.665C28.5166 37.4644 28.5671 37.2303 28.5671 36.9795C28.5671 36.1771 27.9104 35.5251 27.1021 35.5251H27.0516C26.2771 35.5586 25.6372 36.1938 25.6372 36.9795V37.1133C25.6877 37.8489 26.3444 38.4507 27.1021 38.4507C27.6073 38.4507 28.062 38.1832 28.3314 37.7987L28.466 37.8489C28.1798 38.2835 27.6747 38.5678 27.1021 38.5678C26.2602 38.5678 25.553 37.9158 25.5024 37.0966V36.9628C25.5024 36.0935 26.1928 35.3914 27.0684 35.3579H27.119C28.0114 35.3579 28.7355 36.0768 28.7355 36.9628C28.7355 37.2303 28.6681 37.4811 28.5503 37.6984C28.5334 37.7318 28.3988 37.665 28.3988 37.665Z" fill="#F7F7F7" stroke="#F7F7F7" stroke-width="0.8" stroke-miterlimit="10"/>
<path d="M36.9699 49.518V49.5848H36.2627V48.866H36.3132C36.6837 48.866 36.9699 49.1502 36.9699 49.518Z" fill="#F7F7F7"/>
<path d="M46.7701 39.153V49.5681H37.9971V49.5012C37.9971 48.5817 37.2393 47.8294 36.3132 47.8294H36.2627V39.1362H46.7701V39.153Z" fill="#F7F7F7"/>
<path d="M37.5588 49.5179V49.5848C37.5251 50.2367 36.9694 50.755 36.3127 50.755C35.8412 50.755 35.4371 50.5042 35.235 50.1364L35.3697 50.0863C35.555 50.4039 35.9086 50.6212 36.3127 50.6212C36.902 50.6212 37.3736 50.1699 37.4072 49.6015V49.5346C37.4072 48.9328 36.9189 48.4479 36.3127 48.4479H36.2622C35.6728 48.4646 35.2013 48.9495 35.2013 49.5346C35.2013 49.685 35.235 49.8188 35.2856 49.9525L35.1508 50.0027C35.1003 49.8522 35.0498 49.7017 35.0498 49.5179C35.0498 48.8492 35.5886 48.2975 36.2622 48.2808H36.3127C37.0031 48.2808 37.5588 48.8324 37.5588 49.5179Z" stroke="#F7F7F7" stroke-width="0.8" stroke-miterlimit="10"/>
<path d="M35.8417 48.1138C34.2588 48.7825 32.4739 49.4679 30.8574 50.053C32.4234 49.3843 34.2083 48.6989 35.8417 48.1138Z" fill="#F7F7F7"/>
<path d="M33.7201 49.7688C32.1372 50.4375 30.3691 51.123 28.7358 51.7081C30.3186 51.0394 32.0867 50.3539 33.7201 49.7688Z" fill="#F7F7F7"/>
<path d="M35.8417 50.9556C34.2588 51.6243 32.4739 52.3097 30.8574 52.8948C32.4234 52.2261 34.2083 51.5407 35.8417 50.9556Z" fill="#F7F7F7"/>
<path d="M32.9794 51.4573C31.3965 52.126 29.6284 52.8114 27.9951 53.3966C29.5779 52.7446 31.346 52.0591 32.9794 51.4573Z" fill="#F7F7F7"/>
<path d="M31.2786 39.8719C29.9314 39.6044 28.4833 39.2868 27.1699 38.9524C28.5002 39.2032 29.9651 39.5208 31.2786 39.8719Z" fill="#F7F7F7"/>
<path d="M32.2883 36.4446C30.9412 36.1771 29.4931 35.8595 28.1797 35.5251C29.5099 35.7592 30.9749 36.0935 32.2883 36.4446Z" fill="#F7F7F7"/>
<path d="M33.8206 37.5816C32.4735 37.3141 31.0254 36.9965 29.7119 36.6621C31.0422 36.8962 32.5072 37.2305 33.8206 37.5816Z" fill="#F7F7F7"/>
<path d="M34.0398 39.6211C32.6928 39.3536 31.2446 39.036 29.9312 38.7017C31.2783 38.9357 32.7264 39.2701 34.0398 39.6211Z" fill="#F7F7F7"/>
<path d="M34.1412 17.3364C32.6762 18.0386 31.0429 18.7742 29.5273 19.3927C30.9923 18.6906 32.6257 17.955 34.1412 17.3364Z" fill="#F7F7F7"/>
<path d="M34.4776 21.1145C33.0126 21.8167 31.3793 22.5522 29.8638 23.1707C31.3287 22.4687 32.9621 21.7331 34.4776 21.1145Z" fill="#F7F7F7"/>
<path d="M32.6257 19.125C31.4976 19.6767 30.2346 20.2618 29.0728 20.7132C30.2009 20.1448 31.4639 19.5931 32.6257 19.125Z" fill="#F7F7F7"/>
<path d="M31.7164 21.6494C30.7903 22.1342 29.8136 22.5521 28.8369 22.9367C29.7968 22.4519 30.7397 22.0339 31.7164 21.6494Z" fill="#F7F7F7"/>
<path d="M28.938 20.0613C28.517 20.312 28.0792 20.4959 27.6245 20.6631C28.0624 20.3956 28.5001 20.2117 28.938 20.0613Z" fill="#F7F7F7"/>
<path d="M24.1386 36.4613H12.9072V23.1372H26.3277V34.2713C25.1153 34.2713 24.1386 35.2576 24.1386 36.4613Z" fill="#00A87D"/>
<g opacity="0.75">
<path d="M24.1386 36.4613H12.9072V23.1372H26.3277V34.2713C25.1153 34.2713 24.1386 35.2576 24.1386 36.4613Z" fill="#00A87D"/>
</g>
<path d="M38.3506 18.5231H53.859V0.651855H35.8584V16.0489C37.2224 16.0489 38.3506 17.1523 38.3506 18.5231Z" fill="#00A87D"/>
<g opacity="0.75">
<path d="M38.3506 18.5231H53.859V0.651855H35.8584V16.0489C37.2223 16.0489 38.3506 17.1523 38.3506 18.5231Z" fill="#00A87D"/>
</g>
<path d="M38.5693 49.0833H46.2983V39.6211H36.7676V47.2945C37.761 47.3113 38.5693 48.1137 38.5693 49.0833Z" fill="#00A87D"/>
<g opacity="0.75">
<path d="M38.5693 49.0833H46.2982V39.6211H36.7676V47.2945C37.761 47.3113 38.5693 48.1137 38.5693 49.0833Z" fill="#00A87D"/>
</g>
<path d="M26.2772 53.781H20.6699V59.348H26.2772V53.781Z" fill="#00A87D"/>
<g opacity="0.75">
<path d="M26.2772 53.781H20.6699V59.348H26.2772V53.781Z" fill="#00A87D"/>
</g>
<path d="M55.4208 51.9664L54.8208 51.9712V51.952C54.8208 51.784 54.6816 51.6448 54.5136 51.6448H53.1504C52.9824 51.6448 52.8432 51.784 52.8432 51.952V51.9712C52.8432 52.1392 52.9824 52.2784 53.1504 52.2784H54.36C54.672 52.2784 54.9504 52.4128 55.1424 52.624C55.1568 52.6384 55.1664 52.6528 55.1808 52.6672C55.3296 52.8496 55.4208 53.0848 55.4208 53.3392C55.4208 53.9248 54.9456 54.4 54.36 54.4H53.3088C52.7232 54.4 52.248 53.9248 52.248 53.3392H52.848C52.848 53.5936 53.0544 53.8 53.3088 53.8H54.36C54.6144 53.8 54.8256 53.5936 54.8256 53.3392C54.8256 53.0848 54.6144 52.8784 54.36 52.8784H53.1504C52.9056 52.8784 52.6848 52.7824 52.5216 52.624C52.4784 52.5808 52.44 52.5328 52.4064 52.48C52.3056 52.336 52.248 52.1584 52.248 51.9664V51.9472C52.248 51.448 52.6512 51.04 53.1504 51.04H54.5136C55.0128 51.04 55.4208 51.448 55.4208 51.9472V51.9664ZM58.0884 51.04C59.0148 51.04 59.7684 51.7936 59.7684 52.72C59.7684 53.6464 59.0148 54.4 58.0884 54.4C57.162 54.4 56.4084 53.6464 56.4084 52.72C56.4084 51.7936 57.162 51.04 58.0884 51.04ZM58.0884 53.8C58.6836 53.8 59.1684 53.3152 59.1684 52.72C59.1684 52.1248 58.6836 51.64 58.0884 51.64C57.4932 51.64 57.0084 52.1248 57.0084 52.72C57.0084 53.3152 57.4932 53.8 58.0884 53.8ZM61.7649 53.8L63.5265 53.8048V54.4048H61.8225C61.6545 54.4048 61.4961 54.3664 61.3521 54.2944C61.1409 54.1888 60.9681 54.016 60.8673 53.8048C60.7953 53.6608 60.7569 53.5024 60.7569 53.3344V51.0448H61.3569V53.392C61.3857 53.6032 61.5537 53.7712 61.7649 53.8Z" fill="white"/>
<path d="M67.0193 51.04H67.6193V52.72C67.6193 53.6464 66.8657 54.4 65.9393 54.4C65.0129 54.4 64.2593 53.6464 64.2593 52.72V51.04H64.8593V52.72C64.8593 53.3152 65.3441 53.8 65.9393 53.8C66.5345 53.8 67.0193 53.3152 67.0193 52.72V51.04ZM68.7224 51.0448H72.0776V51.6448H70.7V54.4048H70.1V51.6448H68.7224V51.0448ZM73.7854 54.4H73.1854V51.04H73.7854V54.4ZM76.4523 51.04C77.3787 51.04 78.1323 51.7936 78.1323 52.72C78.1323 53.6464 77.3787 54.4 76.4523 54.4C75.5259 54.4 74.7723 53.6464 74.7723 52.72C74.7723 51.7936 75.5259 51.04 76.4523 51.04ZM76.4523 53.8C77.0475 53.8 77.5323 53.3152 77.5323 52.72C77.5323 52.1248 77.0475 51.64 76.4523 51.64C75.8571 51.64 75.3723 52.1248 75.3723 52.72C75.3723 53.3152 75.8571 53.8 76.4523 53.8ZM81.881 51.04L82.481 51.0448V54.4048L81.881 53.944L79.721 52.2784V54.4048H79.121V51.0544L79.721 51.5152L81.881 53.1808V51.04ZM86.7616 51.9664L86.1616 51.9712V51.952C86.1616 51.784 86.0224 51.6448 85.8544 51.6448H84.4912C84.3232 51.6448 84.184 51.784 84.184 51.952V51.9712C84.184 52.1392 84.3232 52.2784 84.4912 52.2784H85.7008C86.0128 52.2784 86.2912 52.4128 86.4832 52.624C86.4976 52.6384 86.5072 52.6528 86.5216 52.6672C86.6704 52.8496 86.7616 53.0848 86.7616 53.3392C86.7616 53.9248 86.2864 54.4 85.7008 54.4H84.6496C84.064 54.4 83.5888 53.9248 83.5888 53.3392H84.1888C84.1888 53.5936 84.3952 53.8 84.6496 53.8H85.7008C85.9552 53.8 86.1664 53.5936 86.1664 53.3392C86.1664 53.0848 85.9552 52.8784 85.7008 52.8784H84.4912C84.2464 52.8784 84.0256 52.7824 83.8624 52.624C83.8192 52.5808 83.7808 52.5328 83.7472 52.48C83.6464 52.336 83.5888 52.1584 83.5888 51.9664V51.9472C83.5888 51.448 83.992 51.04 84.4912 51.04H85.8544C86.3536 51.04 86.7616 51.448 86.7616 51.9472V51.9664Z" fill="white"/>
<path d="M57.8202 45.1999H57.8122C57.8122 45.8879 57.5642 46.5119 57.1562 46.9999H57.8122V47.9999H55.0442C55.0362 47.9999 55.0282 47.9999 55.0202 47.9999C53.4762 47.9999 52.2202 46.7439 52.2202 45.1999C52.2202 43.6559 53.4762 42.3999 55.0202 42.3999C56.5642 42.3999 57.8202 43.6559 57.8202 45.1999ZM55.0602 46.9999C56.0282 46.9759 56.8122 46.1759 56.8122 45.1999C56.8122 44.2079 56.0042 43.3999 55.0122 43.3999C54.0202 43.3999 53.2122 44.2079 53.2122 45.1999C53.2122 46.1919 54.0202 46.9999 55.0122 46.9999H55.0602ZM63.2186 42.3999H64.2186V45.1999C64.2186 46.7439 62.9626 47.9999 61.4186 47.9999C59.8746 47.9999 58.6186 46.7439 58.6186 45.1999V42.3999H59.6186V45.1999C59.6186 46.1919 60.4266 46.9999 61.4186 46.9999C62.4106 46.9999 63.2186 46.1919 63.2186 45.1999V42.3999ZM69.2879 46.9999L69.7999 47.9999H68.6799L68.1679 46.9999L66.9439 44.5999L65.7199 46.9999L65.2079 47.9999H64.0879L64.5999 46.9999L66.9439 42.3999L69.2879 46.9999ZM70.2827 42.3999L73.0747 42.4079C74.6187 42.4079 75.8747 43.6559 75.8747 45.1999C75.8747 45.8879 75.6267 46.5199 75.2107 47.0079C75.1627 47.0639 75.1067 47.1199 75.0507 47.1759C74.5467 47.6879 73.8507 47.9999 73.0827 47.9999H70.2827V42.3999ZM71.2747 43.4079V47.0079H73.0747C74.0667 47.0079 74.8747 46.1999 74.8747 45.2079C74.8747 44.2159 74.0667 43.4079 73.0747 43.4079H71.2747ZM80.4012 45.4159L81.2012 47.0079L81.7132 48.0079H80.5932L80.0812 47.0079L79.5452 45.9599L79.5212 45.9119C79.3452 45.6239 79.0332 45.4319 78.6732 45.4319H77.6732V48.0079H76.6732V42.4079H80.2092C80.6252 42.4079 81.0012 42.5759 81.2732 42.8479C81.5452 43.1279 81.7132 43.5039 81.7132 43.9199C81.7132 44.5279 81.3532 45.0559 80.8332 45.2959C80.6972 45.3599 80.5532 45.3999 80.4012 45.4159ZM77.6732 44.4399L80.2092 44.4319C80.2812 44.4319 80.3532 44.4159 80.4172 44.3839C80.6012 44.3039 80.7212 44.1199 80.7212 43.9199C80.7212 43.7359 80.6252 43.6079 80.5692 43.5519C80.5052 43.4879 80.3852 43.4079 80.2092 43.4079H77.6732V44.4399ZM87.1249 42.3999H88.1249V45.1999C88.1249 46.7439 86.8689 47.9999 85.3249 47.9999C83.7809 47.9999 82.5249 46.7439 82.5249 45.1999V42.3999H83.5249V45.1999C83.5249 46.1919 84.3329 46.9999 85.3249 46.9999C86.3169 46.9999 87.1249 46.1919 87.1249 45.1999V42.3999ZM93.5231 42.8399L93.5311 42.8559C93.8031 43.1279 93.9711 43.5039 93.9711 43.9199C93.9711 44.5279 93.6111 45.0559 93.0911 45.2959C92.9551 45.3599 92.8111 45.3999 92.6591 45.4159C92.6431 45.4159 92.6271 45.4159 92.6111 45.4159V45.4239H89.9313V47.9999H88.9313V42.3999H92.4591C92.8751 42.3999 93.2511 42.5679 93.5231 42.8399ZM92.6751 44.3919V44.3839C92.8591 44.3039 92.9791 44.1199 92.9791 43.9199C92.9791 43.7359 92.8831 43.6079 92.8271 43.5519C92.7631 43.4879 92.6431 43.4079 92.4671 43.4079H89.9313V44.4399H92.4671C92.5391 44.4399 92.6111 44.4239 92.6751 44.3919ZM96.4471 46.9999L99.3831 47.0079V48.0079H96.5431C96.2631 48.0079 95.9991 47.9439 95.7591 47.8239C95.4071 47.6479 95.1191 47.3599 94.9511 47.0079C94.8311 46.7679 94.7671 46.5039 94.7671 46.2239V42.4079H95.7671V46.3199C95.8151 46.6719 96.0951 46.9519 96.4471 46.9999ZM101.693 43.3999C101.413 43.3999 101.181 43.6319 101.181 43.9119V44.4319H104.781V45.4319H101.181V46.4879C101.181 46.7679 101.413 46.9999 101.693 46.9999H105.781V47.9999H101.693C100.861 47.9999 100.189 47.3199 100.189 46.4879V43.9119C100.189 43.0799 100.861 42.3999 101.693 42.3999H105.781V43.3999H101.693Z" fill="#00A87D"/>
</g>
<defs>
<clipPath id="clip0_77_120">
<rect width="118" height="60" fill="white"/>
</clipPath>
</defs>
</svg>
