<svg width="119" height="60" viewBox="0 0 119 60" fill="none" xmlns="http://www.w3.org/2000/svg">
<g clip-path="url(#clip0_14_407)">
<path d="M35.7004 18.8576L34.8753 19.2086L34.5049 19.3926L34.3869 19.426L33.9997 19.6099L22.0105 24.9262L22.1284 24.7924H21.9937L33.966 19.4762L34.3197 19.309L34.4375 19.2588L34.8248 19.0916L35.6836 18.7071L35.4983 18.8576H35.7004Z" stroke="#2B2B2B" stroke-width="0.8" stroke-miterlimit="10"/>
<path d="M26.9944 53.0955H20.04V59.9999H26.9944V53.0955Z" fill="#2B2B2B"/>
<path d="M36.576 49.4678L36.0708 49.6851L35.835 49.7687L35.7508 49.8022L35.5151 49.8858L26.0349 53.5302L26.1023 53.4634L25.9507 53.4801L35.4983 49.8189L35.7172 49.7353L35.8013 49.7018L36.0371 49.6015L36.4749 49.4344L36.3739 49.518L36.576 49.4678Z" fill="#2B2B2B" stroke="#2B2B2B" stroke-width="0.8" stroke-miterlimit="10"/>
<path d="M37.1989 39.3369L37.0473 39.3536L37.0809 39.4037L28.3921 37.3642L28.1059 37.314L28.0049 37.2806L27.7186 37.2137L26.8767 37.0131L27.0619 36.9964L26.9609 36.9295L27.7523 37.1134L28.0385 37.1802L28.1396 37.2137L28.4258 37.2806L37.1989 39.3369Z" fill="#2B2B2B" stroke="#2B2B2B" stroke-width="0.8" stroke-miterlimit="10"/>
<path d="M36.5926 18.8743C36.5926 18.9746 36.5758 19.075 36.5422 19.1753H35.2119V17.7542C35.2793 17.7375 35.3634 17.7208 35.4308 17.7208C36.0875 17.7375 36.5926 18.2558 36.5926 18.8743Z" fill="#2B2B2B"/>
<path d="M54.5426 0V19.1753H37.586C37.6028 19.075 37.6028 18.9746 37.6028 18.8743C37.6028 17.6874 36.6261 16.7178 35.4306 16.7178C35.3633 16.7178 35.279 16.7178 35.2117 16.7345V0H54.5426Z" fill="#2B2B2B"/>
<path d="M37.1817 18.8743C37.1817 18.9746 37.1648 19.0749 37.148 19.1752C36.9965 19.9777 36.3061 20.5962 35.4473 20.5962C35.0937 20.5962 34.7738 20.4959 34.5043 20.312L34.5885 20.195C34.8411 20.3622 35.1442 20.4625 35.4473 20.4625C36.2219 20.4625 36.8618 19.9108 37.0133 19.1919C37.0302 19.0916 37.047 18.9913 37.047 18.891C37.047 18.0217 36.3398 17.3195 35.4642 17.3195C35.3968 17.3195 35.3126 17.3195 35.2452 17.3362C34.4707 17.4366 33.8813 18.1053 33.8813 18.9078C33.8813 19.3926 34.1171 19.8439 34.4875 20.1448L34.4033 20.2618C33.9991 19.9442 33.7466 19.4594 33.7466 18.9078C33.7466 18.0384 34.4033 17.3195 35.2452 17.2025C35.3126 17.1858 35.3968 17.1858 35.4642 17.1858C36.4071 17.1523 37.1817 17.9381 37.1817 18.8743Z" fill="#2B2B2B" stroke="#2B2B2B" stroke-width="0.8" stroke-miterlimit="10"/>
<path d="M27.0957 22.4686V34.9401C25.9843 34.9735 25.0919 35.8596 25.0919 36.9797V37.1134H12.345V22.4686H27.0957Z" fill="#2B2B2B"/>
<path d="M27.0955 35.9598V37.0966H26.1357C26.1357 37.0465 26.1189 37.0131 26.1189 36.963C26.1357 36.4446 26.5567 35.9933 27.0955 35.9598Z" fill="#2B2B2B"/>
<path d="M28.4427 37.665C28.5605 37.4645 28.611 37.2304 28.611 36.9796C28.611 36.1772 27.9543 35.5252 27.1461 35.5252H27.0956C26.321 35.5586 25.6811 36.1939 25.6811 36.9796V37.1134C25.7317 37.849 26.3883 38.4508 27.1461 38.4508C27.6513 38.4508 28.1059 38.1833 28.3753 37.7988L28.51 37.849C28.2237 38.2836 27.7186 38.5678 27.1461 38.5678C26.3041 38.5678 25.5969 37.9158 25.5464 37.0966V36.9629C25.5464 36.0936 26.2368 35.3914 27.1124 35.358H27.1629C28.0553 35.358 28.7794 36.0769 28.7794 36.9629C28.7794 37.2304 28.7121 37.4812 28.5942 37.6985C28.5773 37.7319 28.4427 37.665 28.4427 37.665Z" fill="#2B2B2B" stroke="#2B2B2B" stroke-width="0.8" stroke-miterlimit="10"/>
<path d="M37.0138 49.5179V49.5848H36.3066V48.8659H36.3571C36.7276 48.8659 37.0138 49.1502 37.0138 49.5179Z" fill="#2B2B2B"/>
<path d="M46.814 39.153V49.5681H38.041V49.5012C38.041 48.5817 37.2833 47.8294 36.3571 47.8294H36.3066V39.1362H46.814V39.153Z" fill="#2B2B2B"/>
<path d="M37.603 49.518V49.5849C37.5693 50.2368 37.0136 50.7551 36.3569 50.7551C35.8854 50.7551 35.4813 50.5043 35.2792 50.1366L35.4139 50.0864C35.5992 50.404 35.9528 50.6214 36.3569 50.6214C36.9462 50.6214 37.4178 50.17 37.4514 49.6016V49.5347C37.4514 48.9329 36.9631 48.448 36.3569 48.448H36.3064C35.717 48.4647 35.2455 48.9496 35.2455 49.5347C35.2455 49.6851 35.2792 49.8189 35.3298 49.9526L35.195 50.0028C35.1445 49.8523 35.094 49.7018 35.094 49.518C35.094 48.8493 35.6328 48.2976 36.3064 48.2809H36.3569C37.0473 48.2809 37.603 48.8326 37.603 49.518Z" stroke="#2B2B2B" stroke-width="0.8" stroke-miterlimit="10"/>
<path d="M35.8856 48.1137C34.3027 48.7824 32.5178 49.4678 30.9014 50.053C32.4674 49.3842 34.2522 48.6988 35.8856 48.1137Z" fill="#2B2B2B"/>
<path d="M33.7638 49.7687C32.1809 50.4374 30.4128 51.1229 28.7795 51.708C30.3623 51.0393 32.1304 50.3538 33.7638 49.7687Z" fill="#2B2B2B"/>
<path d="M35.8856 50.9557C34.3027 51.6244 32.5178 52.3098 30.9014 52.895C32.4674 52.2262 34.2522 51.5408 35.8856 50.9557Z" fill="#2B2B2B"/>
<path d="M33.0231 51.4572C31.4402 52.1259 29.6721 52.8114 28.0388 53.3965C29.6216 52.7445 31.3897 52.059 33.0231 51.4572Z" fill="#2B2B2B"/>
<path d="M31.3223 39.8718C29.9751 39.6043 28.527 39.2867 27.2136 38.9523C28.5439 39.2031 30.0088 39.5207 31.3223 39.8718Z" fill="#2B2B2B"/>
<path d="M32.3323 36.4446C30.9852 36.1772 29.5371 35.8595 28.2236 35.5252C29.5539 35.7593 31.0188 36.0936 32.3323 36.4446Z" fill="#2B2B2B"/>
<path d="M33.8647 37.5815C32.5177 37.314 31.0695 36.9964 29.7561 36.662C31.0864 36.8961 32.5514 37.2304 33.8647 37.5815Z" fill="#2B2B2B"/>
<path d="M34.0837 39.621C32.7367 39.3535 31.2885 39.0359 29.9751 38.7016C31.3222 38.9356 32.7703 39.27 34.0837 39.621Z" fill="#2B2B2B"/>
<path d="M34.1849 17.3363C32.7199 18.0385 31.0866 18.7741 29.571 19.3926C31.036 18.6905 32.6694 17.9549 34.1849 17.3363Z" fill="#2B2B2B"/>
<path d="M34.5216 21.1146C33.0566 21.8167 31.4232 22.5522 29.9077 23.1708C31.3727 22.4687 33.006 21.7331 34.5216 21.1146Z" fill="#2B2B2B"/>
<path d="M32.6694 19.1251C31.5413 19.6768 30.2783 20.2619 29.1165 20.7133C30.2446 20.1449 31.5076 19.5932 32.6694 19.1251Z" fill="#2B2B2B"/>
<path d="M31.7603 21.6495C30.8342 22.1343 29.8575 22.5522 28.8809 22.9368C29.8407 22.452 30.7837 22.034 31.7603 21.6495Z" fill="#2B2B2B"/>
<path d="M28.9819 20.0614C28.5609 20.3121 28.1231 20.496 27.6685 20.6632C28.1063 20.3957 28.5441 20.2118 28.9819 20.0614Z" fill="#2B2B2B"/>
<path d="M24.1826 36.4614H12.9512V23.1373H26.3716V34.2714C25.1592 34.2714 24.1826 35.2577 24.1826 36.4614Z" fill="#00A87D"/>
<g opacity="0.75">
<path d="M24.1826 36.4614H12.9512V23.1373H26.3716V34.2714C25.1592 34.2714 24.1826 35.2577 24.1826 36.4614Z" fill="#00A87D"/>
</g>
<path d="M38.3947 18.5232H53.9032V0.651947H35.9026V16.049C37.2666 16.049 38.3947 17.1524 38.3947 18.5232Z" fill="#00A87D"/>
<g opacity="0.75">
<path d="M38.3945 18.5232H53.9029V0.651947H35.9023V16.049C37.2663 16.049 38.3945 17.1524 38.3945 18.5232Z" fill="#00A87D"/>
</g>
<path d="M38.6133 49.0834H46.3422V39.6211H36.8115V47.2946C37.805 47.3113 38.6133 48.1137 38.6133 49.0834Z" fill="#00A87D"/>
<g opacity="0.75">
<path d="M38.6132 49.0834H46.3422V39.6211H36.8115V47.2946C37.805 47.3113 38.6132 48.1137 38.6132 49.0834Z" fill="#00A87D"/>
</g>
<path d="M26.3211 53.781H20.7139V59.3481H26.3211V53.781Z" fill="#00A87D"/>
<g opacity="0.75">
<path d="M26.3211 53.781H20.7139V59.3481H26.3211V53.781Z" fill="#00A87D"/>
</g>
<path d="M55.4648 51.9664L54.8648 51.9712V51.952C54.8648 51.784 54.7256 51.6448 54.5576 51.6448H53.1944C53.0264 51.6448 52.8872 51.784 52.8872 51.952V51.9712C52.8872 52.1392 53.0264 52.2784 53.1944 52.2784H54.404C54.716 52.2784 54.9944 52.4128 55.1864 52.624C55.2008 52.6384 55.2104 52.6528 55.2248 52.6672C55.3736 52.8496 55.4648 53.0848 55.4648 53.3392C55.4648 53.9248 54.9896 54.4 54.404 54.4H53.3528C52.7672 54.4 52.292 53.9248 52.292 53.3392H52.892C52.892 53.5936 53.0984 53.8 53.3528 53.8H54.404C54.6584 53.8 54.8696 53.5936 54.8696 53.3392C54.8696 53.0848 54.6584 52.8784 54.404 52.8784H53.1944C52.9496 52.8784 52.7288 52.7824 52.5656 52.624C52.5224 52.5808 52.484 52.5328 52.4504 52.48C52.3496 52.336 52.292 52.1584 52.292 51.9664V51.9472C52.292 51.448 52.6952 51.04 53.1944 51.04H54.5576C55.0568 51.04 55.4648 51.448 55.4648 51.9472V51.9664ZM58.1323 51.04C59.0587 51.04 59.8123 51.7936 59.8123 52.72C59.8123 53.6464 59.0587 54.4 58.1323 54.4C57.2059 54.4 56.4523 53.6464 56.4523 52.72C56.4523 51.7936 57.2059 51.04 58.1323 51.04ZM58.1323 53.8C58.7275 53.8 59.2123 53.3152 59.2123 52.72C59.2123 52.1248 58.7275 51.64 58.1323 51.64C57.5371 51.64 57.0523 52.1248 57.0523 52.72C57.0523 53.3152 57.5371 53.8 58.1323 53.8ZM61.8089 53.8L63.5705 53.8048V54.4048H61.8665C61.6985 54.4048 61.5401 54.3664 61.3961 54.2944C61.1849 54.1888 61.0121 54.016 60.9113 53.8048C60.8393 53.6608 60.8009 53.5024 60.8009 53.3344V51.0448H61.4009V53.392C61.4297 53.6032 61.5977 53.7712 61.8089 53.8Z" fill="#2B2B2B"/>
<path d="M67.063 51.04H67.663V52.72C67.663 53.6464 66.9094 54.4 65.983 54.4C65.0566 54.4 64.303 53.6464 64.303 52.72V51.04H64.903V52.72C64.903 53.3152 65.3878 53.8 65.983 53.8C66.5782 53.8 67.063 53.3152 67.063 52.72V51.04ZM68.7661 51.0448H72.1213V51.6448H70.7437V54.4048H70.1437V51.6448H68.7661V51.0448ZM73.8291 54.4H73.2291V51.04H73.8291V54.4ZM76.496 51.04C77.4224 51.04 78.176 51.7936 78.176 52.72C78.176 53.6464 77.4224 54.4 76.496 54.4C75.5696 54.4 74.816 53.6464 74.816 52.72C74.816 51.7936 75.5696 51.04 76.496 51.04ZM76.496 53.8C77.0912 53.8 77.576 53.3152 77.576 52.72C77.576 52.1248 77.0912 51.64 76.496 51.64C75.9008 51.64 75.416 52.1248 75.416 52.72C75.416 53.3152 75.9008 53.8 76.496 53.8ZM81.9247 51.04L82.5247 51.0448V54.4048L81.9247 53.944L79.7647 52.2784V54.4048H79.1647V51.0544L79.7647 51.5152L81.9247 53.1808V51.04ZM86.8053 51.9664L86.2053 51.9712V51.952C86.2053 51.784 86.0661 51.6448 85.8981 51.6448H84.5349C84.3669 51.6448 84.2277 51.784 84.2277 51.952V51.9712C84.2277 52.1392 84.3669 52.2784 84.5349 52.2784H85.7445C86.0565 52.2784 86.3349 52.4128 86.5269 52.624C86.5413 52.6384 86.5509 52.6528 86.5653 52.6672C86.7141 52.8496 86.8053 53.0848 86.8053 53.3392C86.8053 53.9248 86.3301 54.4 85.7445 54.4H84.6933C84.1077 54.4 83.6325 53.9248 83.6325 53.3392H84.2325C84.2325 53.5936 84.4389 53.8 84.6933 53.8H85.7445C85.9989 53.8 86.2101 53.5936 86.2101 53.3392C86.2101 53.0848 85.9989 52.8784 85.7445 52.8784H84.5349C84.2901 52.8784 84.0693 52.7824 83.9061 52.624C83.8629 52.5808 83.8245 52.5328 83.7909 52.48C83.6901 52.336 83.6325 52.1584 83.6325 51.9664V51.9472C83.6325 51.448 84.0357 51.04 84.5349 51.04H85.8981C86.3973 51.04 86.8053 51.448 86.8053 51.9472V51.9664Z" fill="#2B2B2B"/>
<path d="M57.8642 45.2H57.8562C57.8562 45.888 57.6082 46.512 57.2002 47H57.8562V48H55.0882C55.0802 48 55.0722 48 55.0642 48C53.5202 48 52.2642 46.744 52.2642 45.2C52.2642 43.656 53.5202 42.4 55.0642 42.4C56.6082 42.4 57.8642 43.656 57.8642 45.2ZM55.1042 47C56.0722 46.976 56.8562 46.176 56.8562 45.2C56.8562 44.208 56.0482 43.4 55.0562 43.4C54.0642 43.4 53.2562 44.208 53.2562 45.2C53.2562 46.192 54.0642 47 55.0562 47H55.1042ZM63.2626 42.4H64.2626V45.2C64.2626 46.744 63.0066 48 61.4626 48C59.9186 48 58.6626 46.744 58.6626 45.2V42.4H59.6626V45.2C59.6626 46.192 60.4706 47 61.4626 47C62.4546 47 63.2626 46.192 63.2626 45.2V42.4ZM69.3318 47L69.8438 48H68.7238L68.2118 47L66.9878 44.6L65.7638 47L65.2518 48H64.1318L64.6438 47L66.9878 42.4L69.3318 47ZM70.3266 42.4L73.1186 42.408C74.6626 42.408 75.9186 43.656 75.9186 45.2C75.9186 45.888 75.6706 46.52 75.2546 47.008C75.2066 47.064 75.1506 47.12 75.0946 47.176C74.5906 47.688 73.8946 48 73.1266 48H70.3266V42.4ZM71.3186 43.408V47.008H73.1186C74.1106 47.008 74.9186 46.2 74.9186 45.208C74.9186 44.216 74.1106 43.408 73.1186 43.408H71.3186ZM80.4451 45.416L81.2451 47.008L81.7571 48.008H80.6371L80.1251 47.008L79.5891 45.96L79.5651 45.912C79.3891 45.624 79.0771 45.432 78.7171 45.432H77.7171V48.008H76.7171V42.408H80.2531C80.6691 42.408 81.0451 42.576 81.3171 42.848C81.5891 43.128 81.7571 43.504 81.7571 43.92C81.7571 44.528 81.3971 45.056 80.8771 45.296C80.7411 45.36 80.5971 45.4 80.4451 45.416ZM77.7171 44.44L80.2531 44.432C80.3251 44.432 80.3971 44.416 80.4611 44.384C80.6451 44.304 80.7651 44.12 80.7651 43.92C80.7651 43.736 80.6691 43.608 80.6131 43.552C80.5491 43.488 80.4291 43.408 80.2531 43.408H77.7171V44.44ZM87.1688 42.4H88.1689V45.2C88.1689 46.744 86.9129 48 85.3689 48C83.8249 48 82.5689 46.744 82.5689 45.2V42.4H83.5689V45.2C83.5689 46.192 84.3769 47 85.3689 47C86.3609 47 87.1688 46.192 87.1688 45.2V42.4ZM93.567 42.84L93.575 42.856C93.847 43.128 94.015 43.504 94.015 43.92C94.015 44.528 93.655 45.056 93.135 45.296C92.999 45.36 92.855 45.4 92.703 45.416C92.687 45.416 92.671 45.416 92.655 45.416V45.424H89.9753V48H88.9753V42.4H92.503C92.919 42.4 93.295 42.568 93.567 42.84ZM92.719 44.392V44.384C92.903 44.304 93.023 44.12 93.023 43.92C93.023 43.736 92.927 43.608 92.871 43.552C92.807 43.488 92.687 43.408 92.511 43.408H89.9753V44.44H92.511C92.583 44.44 92.655 44.424 92.719 44.392ZM96.491 47L99.427 47.008V48.008H96.587C96.307 48.008 96.043 47.944 95.803 47.824C95.451 47.648 95.163 47.36 94.995 47.008C94.875 46.768 94.811 46.504 94.811 46.224V42.408H95.811V46.32C95.859 46.672 96.139 46.952 96.491 47ZM101.737 43.4C101.457 43.4 101.225 43.632 101.225 43.912V44.432H104.825V45.432H101.225V46.488C101.225 46.768 101.457 47 101.737 47H105.825V48H101.737C100.905 48 100.233 47.32 100.233 46.488V43.912C100.233 43.08 100.905 42.4 101.737 42.4H105.825V43.4H101.737Z" fill="#00A87D"/>
</g>
<defs>
<clipPath id="clip0_14_407">
<rect width="118" height="60" fill="white" transform="translate(0.0439453)"/>
</clipPath>
</defs>
</svg>
